<svg xmlns="http://www.w3.org/2000/svg" viewBox="0 0 738.57 179.95"><defs><style>.cls-1{fill:#dda46f;}</style></defs><title>OMW Logotype Small</title><g id="Capa_2" data-name="Capa 2"><g id="Capa_1-2" data-name="Capa 1"><path class="cls-1" d="M228.21,44.65c-.73-1.3-1.51-2.57-2.32-3.81a67.39,67.39,0,0,0-92.54-20.17c-.72.43-1.42.9-2.12,1.39a66.38,66.38,0,0,0-7.81,6.27c-.62.56-1.22,1.14-1.8,1.72a67.4,67.4,0,0,0,0,95.32,65.06,65.06,0,0,1-7.8,6.22,77.27,77.27,0,0,1,0-107.75c.57-.61,1.17-1.21,1.77-1.78a78.7,78.7,0,0,1,7.83-6.64c.69-.51,1.4-1,2.12-1.5A77.33,77.33,0,0,1,192.19,3.7l.19.06A86.82,86.82,0,0,1,228.21,44.65Z"/><path class="cls-1" d="M229.48,108.42a86.76,86.76,0,0,1-34.13,42.26l-.24.08a77.3,77.3,0,0,1-69.57-9.25,78.26,78.26,0,0,0,7.82-6.74,67.4,67.4,0,0,0,94-22.62C228.14,110.93,228.83,109.69,229.48,108.42Z"/><path class="cls-1" d="M200.77,6.92a90.25,90.25,0,0,1,10.29,8.83A87.57,87.57,0,0,1,236.8,74.24v0c0,1,.07,2,.08,3.07,0,.13,0,.26,0,.38v.42a87.66,87.66,0,0,1-25.83,62.38,92.65,92.65,0,0,1-7.5,6.69A77.43,77.43,0,0,0,200.77,6.92Z"/><path class="cls-1" d="M20.94,40.84c-.81,1.24-1.59,2.51-2.32,3.81A86.82,86.82,0,0,1,54.45,3.76l.19-.06A77.36,77.36,0,0,1,121.3,13.92a78.26,78.26,0,0,0-7.82,6.74A67.41,67.41,0,0,0,20.94,40.84Z"/><path class="cls-1" d="M154.89,77.71A77.1,77.1,0,0,1,133,131.59c-.57.61-1.17,1.2-1.79,1.78a76,76,0,0,1-7.81,6.63c-.7.52-1.41,1-2.12,1.51a77.36,77.36,0,0,1-69.57,9.26l-.25-.09a86.81,86.81,0,0,1-34.13-42.26c.65,1.26,1.33,2.49,2,3.71l0,0a67.38,67.38,0,0,0,94.05,22.61c.72-.44,1.43-.9,2.12-1.39a68.71,68.71,0,0,0,7.83-6.27c.61-.56,1.2-1.14,1.78-1.73a67.38,67.38,0,0,0,0-95.32A67,67,0,0,1,133,23.84,77.09,77.09,0,0,1,154.89,77.71Z"/><path class="cls-1" d="M46.06,6.92a90.15,90.15,0,0,0-10.28,8.83A87.58,87.58,0,0,0,10,74.24v0c0,1-.07,2-.08,3.07,0,.13,0,.26,0,.38v.42a87.67,87.67,0,0,0,25.84,62.38,92.52,92.52,0,0,0,7.49,6.69A77.43,77.43,0,0,1,46.06,6.92Z"/><polygon class="cls-1" points="3.69 20.81 21.02 22.68 7.91 16.58 3.69 20.81"/><polygon class="cls-1" points="8.6 15.89 22.57 22.39 16.15 8.34 8.6 15.89"/><polygon class="cls-1" points="23.02 21.17 21.11 3.39 16.84 7.65 23.02 21.17"/><polygon class="cls-1" points="12.9 1.24 7.9 6.24 15.55 7.03 12.9 1.24"/><polygon class="cls-1" points="15.28 7.92 7.41 7.11 8.22 14.98 15.28 7.92"/><polygon class="cls-1" points="6.54 7.6 1.53 12.61 7.34 15.3 6.54 7.6"/><polygon class="cls-1" points="1.4 13.55 2.95 20.25 7.03 16.17 1.4 13.55"/><polygon class="cls-1" points="20.55 2.65 13.85 1.1 16.44 6.76 20.55 2.65"/><path class="cls-1" d="M274.59,47.55c14,0,20.07-10.55,20.07-23.5S288.56.56,274.59.56,254.52,11,254.52,24.05,260.62,47.55,274.59,47.55Zm0-.57c-8.09,0-13.12-10.62-13.12-22.93s5-23,13.12-23,13.19,10.69,13.19,23S282.67,47,274.59,47Z"/><path class="cls-1" d="M328.67,47.67h-1.45V28.82c0-12.18-5.81-14.37-10.47-14.37h-.14c-7.56,0-10.11,5.18-11.05,10.36V.73c0-.65-.59-.73-.95-.73h-9.17V.5c3.81,0,4.34,1.9,4.34,4.79V46.23h-1.45v1.44h10.11V46.23h-2.88V28.61c0-8.5,3.08-14.23,9.1-14.23,5.68,0,5.2,6.16,5.34,13.38V46.23h-1.44v1.44Z"/><polygon class="cls-1" points="393.67 2.04 393.67 5.99 379.76 39.21 379.19 37.85 393.67 2.04"/><path class="cls-1" d="M399.45,5.35V46.23h1.44v1.44H390.78V46.23h2.89V6l2.51-6h7.6V.56C400,.56,399.45,2.47,399.45,5.35Z"/><path class="cls-1" d="M409.57,60.5c3.76,0,5.6-3.12,7.66-8.28l15-37.77h-.63L421.84,39.2l-9.57-23.31h1.62V14.45H403.78v1.44h1.89l12.84,31.66-1.71,4.31c-1.7,3.83-4,5.24-5.95,5.24a4,4,0,0,1-2.06-.57c-1.91-.77-2.84-2.83-3.33-4.52l-.14-.08a1.47,1.47,0,0,0-.5.22,4.44,4.44,0,0,0-1.06,2.9,5.32,5.32,0,0,0,3.83,5.16A6.73,6.73,0,0,0,409.57,60.5Z"/><polygon class="cls-1" points="347.85 155.12 385.72 59.23 384.58 59.23 353.95 137 327.99 71.75 332.81 59.23 331.68 59.23 301.04 137 270.69 60.67 273.78 60.67 273.78 59.23 255 59.23 255 60.67 257.5 60.67 294.94 155.12 321.32 88.45 347.85 155.12"/><path class="cls-1" d="M407.62,155.33a29.06,29.06,0,0,0,18.76-6.78c5-4.42,7.39-10.46,8.71-17.1h-1.47c-1.18,6.34-3,10.91-7.68,15.48a19.2,19.2,0,0,1-13.44,5.6c-8,0-15.66-5.16-19.06-15a58,58,0,0,1-2.66-17.84V117h20.38c11.38,0,19.8-6.19,19.8-14.15,0-3.1-1.33-6.64-4.58-10.17-3-3.25-9.31-5.16-14.77-5.9a38.56,38.56,0,0,0-7.09-.59c-17.28,0-26,17.25-26,34.49a46.09,46.09,0,0,0,4.28,19.75C387.83,150.47,397.72,155.33,407.62,155.33Zm-4-38.32H390.4c.85-12.88,5.67-24.63,14.75-26.89l2.55-.29c7.52,0,12.06,6.65,12.06,13.31C419.76,110.07,414.94,117,403.59,117Z"/><path class="cls-1" d="M502,153.12V46.2c0-1.42-1.65-1.42-2.39-1.42H480.34v1.13c7.75,0,8.67,3.83,8.67,9.63v51.82c-1.65-8.9-6-17.8-17.64-19.63A40.42,40.42,0,0,0,465,87.3a37.87,37.87,0,0,0-4.63.29c-14.95,2.11-22.57,17.37-22.57,32.62,0,8.9,2.54,17.66,7.62,23.87s13.6,9,22.27,9c9.26,0,18.53-3.11,24.21-8.62l1.79-2.11,6.13,10.73Zm-31.73-.55c-12,0-18.15-16-18.15-31.85s6.1-31.84,18.15-31.84c12.48,0,18.73,11.46,18.73,28.3v6.94C488.72,140.26,482.48,152.57,470.28,152.57Z"/><path class="cls-1" d="M569.9,153.12V60.64c0-1.41-1.65-1.41-2.39-1.41H548.23v1.13c7.76,0,8.67,3.82,8.67,9.62v37.39c-1.65-8.89-6-17.79-17.63-19.62a42,42,0,0,0-6.43-.42,40.42,40.42,0,0,0-4.63.28c-15,2.12-22.57,17.36-22.57,32.61,0,8.9,2.54,17.65,7.62,23.86s13.6,9,22.27,9c9.26,0,18.53-3.11,24.21-8.61l1.79-2.12,6.13,10.73Zm-31.73-.55c-12,0-18.15-16-18.15-31.85s6.1-31.84,18.15-31.84c12.49,0,18.73,11.46,18.73,28.3v6.94C556.61,140.26,550.37,152.57,538.17,152.57Z"/><path class="cls-1" d="M600.23,154.56v-1.44H595.9v-64c.81-1.42-1.46-1-1.46-1H575.68v1.13c7.6,0,8.66,3.84,8.66,9.65v54.22h-2.89v1.44Z"/><path class="cls-1" d="M671,169v-1.44h-4.33V116.06c0-23.69-11.25-27.94-20.38-27.94H646c-14.48,0-19.54,9.93-21.23,20V89.54c0-1.42-1.55-1.42-2.25-1.42h-18v1.13c7.6,0,8.66,3.84,8.66,9.65v54.22h-2.89v1.44h18.78v-1.44h-4.33V117.88c0-17,6.35-28.45,19.21-28.45,12,0,11,12.31,11.12,26.75v51.39h-2.88V169Z"/><path class="cls-1" d="M707.43,180c14.18,0,30-7.77,30-19.84V160c0-12.77-15.57-17.62-30.17-17.62-8.62,0-16.82,1.66-21.41,4.44,1.39-3.61,2.92-7.08,4.73-10.69a34.26,34.26,0,0,0,17.51,4.72c16.83,0,30.45-11.38,30.45-25.39,0-9-5.42-16.79-13.76-21.37a25.52,25.52,0,0,0,6-16.23A19.2,19.2,0,0,0,728,67.44a9.76,9.76,0,0,0-8.21-4.58,7.61,7.61,0,0,0-6.81,4l-.14.56c0,.27.14.41.42.55a20.82,20.82,0,0,1,7.37,3.89A15.61,15.61,0,0,1,726.48,84a16.07,16.07,0,0,1-3.2,9.43,33.82,33.82,0,0,0-15.16-3.47c-16.82,0-30.44,11.38-30.44,25.53,0,8.19,4.58,15.4,11.81,20.12a140.49,140.49,0,0,0-5.83,13l1.52.41c3.2-3,11.13-5.13,19.47-5.13,11.68,0,23.91,4.3,23.91,16.23,0,10.13-9.59,19-20.44,19h-.69c-8.62-.41-20.58-3.88-20.58-17.06a25.76,25.76,0,0,1,.56-5.83l.14-.69c0-.42-.28-.84-1.12-1h-.83c-3.75,0-7.09,3.75-7.09,8.61l.14,1.25C679.9,173.85,691.44,180,707.43,180Zm-.07-41.25c-6,0-11.35-3.68-14.75-9.49A139.22,139.22,0,0,1,720.55,96a29.1,29.1,0,0,1,5.67,17.84C726.22,127.23,717.72,138.7,707.36,138.7Zm-15.6-10.76a31,31,0,0,1-3.26-14.15c0-13.59,8.36-24.91,18.86-24.91a16.35,16.35,0,0,1,12.2,5.94C708.07,105.44,699.13,115.49,691.76,127.94Z"/><polygon class="cls-1" points="578.21 66.45 588.36 78.27 583.75 66.45 578.21 66.45"/><polygon class="cls-1" points="584.66 66.45 589.57 79.04 594.57 66.45 584.66 66.45"/><polygon class="cls-1" points="590.66 78.57 601.08 66.45 595.48 66.45 590.66 78.57"/><polygon class="cls-1" points="597.1 59.23 590.53 59.23 595.04 64.42 597.1 59.23"/><polygon class="cls-1" points="594.27 65.01 589.64 59.66 585.01 65.01 594.27 65.01"/><polygon class="cls-1" points="588.75 59.23 582.17 59.23 584.21 64.46 588.75 59.23"/><polygon class="cls-1" points="581.47 59.93 578.08 65.01 583.44 65.01 581.47 59.93"/><polygon class="cls-1" points="601.2 65.01 597.81 59.93 595.79 65.01 601.2 65.01"/><path class="cls-1" d="M379.19,37.85,375,48.26,360.57,12.62V47.86h-3.4V2.6c-.48-1.27-1.59-2-3.95-2V0h10Z"/></g></g></svg>